<svg width="46" height="46" viewBox="0 0 46 46" fill="none" xmlns="http://www.w3.org/2000/svg">
  <path d="M22.2 41.3c-10.1-.43-18.15-8.75-18.15-18.95 0-10.48 8.5-18.98 18.98-18.98 9.22 0 16.9 6.58 18.63 15.31" stroke="#FF5A3C" stroke-width="2.8" stroke-linecap="round"/>
  <path d="M5.85 16.5h34.36M5.85 28.15h16.1M23.03 3.37c-4.28 4.1-6.72 10.99-6.72 18.98 0 7.58 2.2 14.16 6.1 18.34M23.03 3.37c3.08 2.95 5.22 7.42 6.17 12.73" stroke="#FF5A3C" stroke-width="2.8" stroke-linecap="round"/>
  <path d="M35.2 42.1s7.05-6.26 7.05-12.08a7.05 7.05 0 1 0-14.1 0c0 5.82 7.05 12.08 7.05 12.08Z" fill="#FF5A3C"/>
  <circle cx="35.2" cy="30.02" r="2.45" fill="#fff"/>
</svg>
