<svg width="36" height="36" viewBox="0 0 36 36" fill="none" xmlns="http://www.w3.org/2000/svg">
  <path d="M16.2 16.9c3 0 5.45-2.43 5.45-5.43S19.2 6.05 16.2 6.05s-5.43 2.42-5.43 5.42 2.43 5.43 5.43 5.43Z" fill="#FF5A3C"/>
  <path d="M7.2 27.9c.38-5.28 4.03-8.9 9-8.9 2.03 0 3.85.61 5.26 1.73-.54.52-.95 1.17-1.16 1.92l-.36 1.23h-2.9l2.42 2.38a6.3 6.3 0 0 0 .73 1.65H7.2Z" fill="#FF5A3C"/>
  <path d="M24.58 20.72v9.5M27.56 23.07c-.67-.73-1.57-1.16-2.83-1.16-1.42 0-2.45.72-2.45 1.8 0 1.18 1.07 1.56 2.55 1.86 1.42.29 2.42.68 2.42 1.84 0 1.03-1.02 1.74-2.5 1.74-1.28 0-2.35-.43-3.12-1.25" stroke="#FF5A3C" stroke-width="1.8" stroke-linecap="round" stroke-linejoin="round"/>
</svg>
