<svg width="36" height="36" viewBox="0 0 36 36" fill="none" xmlns="http://www.w3.org/2000/svg">
  <path d="M13.4 12.8a5.1 5.1 0 1 0 0-10.2 5.1 5.1 0 0 0 0 10.2Z" fill="#FF5A3C"/>
  <path d="M5.25 25.25c.35-5.34 3.56-9.14 8.14-9.14 3.12 0 5.71 1.77 7.04 4.64l-.15.13c-.75.7-1.12 1.71-1.01 2.73.06.58.24 1.13.53 1.64H5.25Z" fill="#FF5A3C"/>
  <circle cx="25.45" cy="21.95" r="6.8" fill="#FF5A3C"/>
  <circle cx="25.45" cy="21.95" r="4.55" fill="#FF5A3C"/>
  <path d="M25.5 19v5.88M27.25 20.5c-.4-.45-.98-.7-1.75-.7-.86 0-1.48.4-1.48 1.03 0 .72.66.96 1.55 1.14.86.17 1.46.42 1.46 1.1 0 .64-.62 1.03-1.52 1.03-.8 0-1.47-.26-1.95-.76" stroke="#fff" stroke-width="1" stroke-linecap="round" stroke-linejoin="round"/>
</svg>
