<svg width="18" height="20" viewBox="0 0 18 20" fill="none" xmlns="http://www.w3.org/2000/svg">
<path fill-rule="evenodd" clip-rule="evenodd" d="M8.18502 0.211157C8.6918 -0.0703862 9.30801 -0.0703855 9.81479 0.211158L17.1367 4.27891C17.6694 4.57485 17.9998 5.13632 17.9998 5.7457V13.8211C17.9998 14.4305 17.6694 14.9919 17.1367 15.2879L9.81479 19.3556C9.30801 19.6372 8.6918 19.6372 8.18502 19.3556L0.863063 15.2879C0.330372 14.9919 0 14.4304 0 13.8211V5.7457C0 5.13632 0.330374 4.57485 0.863064 4.27891L8.18502 0.211157ZM9.07398 1.5446C9.02791 1.51901 8.97189 1.51901 8.92582 1.5446L1.60387 5.61236C1.55544 5.63926 1.52541 5.6903 1.52541 5.7457V13.8211C1.52541 13.8765 1.55544 13.9275 1.60387 13.9544L8.92582 18.0222C8.97189 18.0478 9.02791 18.0478 9.07398 18.0222L16.3959 13.9544C16.4444 13.9275 16.4744 13.8765 16.4744 13.8211V5.7457C16.4744 5.6903 16.4444 5.63926 16.3959 5.61235L9.07398 1.5446Z" fill="#FF5A3C"/>
<path fill-rule="evenodd" clip-rule="evenodd" d="M4.16945 9.78339C4.16945 7.1156 6.33211 4.95293 8.9999 4.95293C11.6677 4.95293 13.8304 7.1156 13.8304 9.78339C13.8304 12.4512 11.6677 14.6138 8.9999 14.6138C6.33211 14.6138 4.16945 12.4512 4.16945 9.78339ZM8.9999 6.47834C7.17457 6.47834 5.69485 7.95806 5.69485 9.78339C5.69485 11.6087 7.17457 13.0884 8.9999 13.0884C10.8252 13.0884 12.3049 11.6087 12.3049 9.78339C12.3049 7.95806 10.8252 6.47834 8.9999 6.47834Z" fill="#FF5A3C"/>
</svg>
