<svg width="15" height="13" viewBox="0 0 15 13" fill="none" xmlns="http://www.w3.org/2000/svg">
<path d="M13.4736 3.02348C14.0607 2.58317 14.589 2.05479 15 1.43836C14.4716 1.67319 13.8552 1.84932 13.2387 1.90802C13.8845 1.52642 14.3542 0.939335 14.589 0.205479C14.002 0.55773 13.3268 0.821918 12.6517 0.968689C12.0646 0.35225 11.272 0 10.3914 0C8.68885 0 7.3092 1.37965 7.3092 3.08219C7.3092 3.31703 7.33855 3.55186 7.39726 3.78669C4.84344 3.63992 2.55382 2.40705 1.0274 0.55773C0.763209 0.998043 0.616438 1.52642 0.616438 2.1135C0.616438 3.17025 1.14481 4.10959 1.99609 4.66732C1.49706 4.63796 0.998043 4.52055 0.587084 4.28571V4.31507C0.587084 5.81213 1.64384 7.04501 3.05284 7.33855C2.818 7.39726 2.52446 7.45597 2.26027 7.45597C2.05479 7.45597 1.87867 7.42661 1.67319 7.39726C2.05479 8.63014 3.19961 9.51076 4.5499 9.54012C3.49315 10.362 2.17221 10.8611 0.733855 10.8611C0.469667 10.8611 0.234834 10.8317 0 10.8023C1.35029 11.683 2.96477 12.182 4.72603 12.182C10.3914 12.182 13.4736 7.51468 13.4736 3.43444C13.4736 3.28767 13.4736 3.17025 13.4736 3.02348Z" fill="#FF5A3C"/>
</svg>
