<svg width="14" height="14" viewBox="0 0 14 14" fill="none" xmlns="http://www.w3.org/2000/svg">
<path d="M7.01559 3.39866C5.02004 3.39866 3.42984 5.02004 3.42984 6.98441C3.42984 8.97996 5.02004 10.5702 7.01559 10.5702C8.97996 10.5702 10.6013 8.97996 10.6013 6.98441C10.6013 5.02004 8.97996 3.39866 7.01559 3.39866ZM7.01559 9.32294C5.73719 9.32294 4.67706 8.29399 4.67706 6.98441C4.67706 5.70601 5.70601 4.67706 7.01559 4.67706C8.29399 4.67706 9.32294 5.70601 9.32294 6.98441C9.32294 8.29399 8.29399 9.32294 7.01559 9.32294ZM11.5679 3.27394C11.5679 2.80624 11.1938 2.43207 10.7261 2.43207C10.2584 2.43207 9.88419 2.80624 9.88419 3.27394C9.88419 3.74165 10.2584 4.11581 10.7261 4.11581C11.1938 4.11581 11.5679 3.74165 11.5679 3.27394ZM13.9376 4.11581C13.8753 2.99332 13.6258 1.99555 12.8151 1.18486C12.0045 0.374165 11.0067 0.124722 9.88419 0.0623608C8.73051 0 5.26949 0 4.11581 0.0623608C2.99332 0.124722 2.02673 0.374165 1.18486 1.18486C0.374165 1.99555 0.124722 2.99332 0.0623608 4.11581C0 5.26949 0 8.73051 0.0623608 9.88419C0.124722 11.0067 0.374165 11.9733 1.18486 12.8151C2.02673 13.6258 2.99332 13.8753 4.11581 13.9376C5.26949 14 8.73051 14 9.88419 13.9376C11.0067 13.8753 12.0045 13.6258 12.8151 12.8151C13.6258 11.9733 13.8753 11.0067 13.9376 9.88419C14 8.73051 14 5.26949 13.9376 4.11581ZM12.441 11.1002C12.2227 11.7238 11.7238 12.1915 11.1314 12.441C10.196 12.8151 8.01336 12.7216 7.01559 12.7216C5.98664 12.7216 3.80401 12.8151 2.89978 12.441C2.27617 12.1915 1.80846 11.7238 1.55902 11.1002C1.18486 10.196 1.2784 8.01336 1.2784 6.98441C1.2784 5.98664 1.18486 3.80401 1.55902 2.8686C1.80846 2.27617 2.27617 1.80846 2.89978 1.55902C3.80401 1.18486 5.98664 1.2784 7.01559 1.2784C8.01336 1.2784 10.196 1.18486 11.1314 1.55902C11.7238 1.77728 12.1915 2.27617 12.441 2.8686C12.8151 3.80401 12.7216 5.98664 12.7216 6.98441C12.7216 8.01336 12.8151 10.196 12.441 11.1002Z" fill="white"/>
</svg>
