<svg width="17" height="12" viewBox="0 0 17 12" fill="none" xmlns="http://www.w3.org/2000/svg">
<path d="M16.6271 1.8958C16.4406 1.14991 15.8501 0.559415 15.1353 0.372943C13.7989 0 8.51554 0 8.51554 0C8.51554 0 3.2011 0 1.86472 0.372943C1.14991 0.559415 0.559415 1.14991 0.372943 1.8958C0 3.2011 0 5.99817 0 5.99817C0 5.99817 0 8.76417 0.372943 10.1005C0.559415 10.8464 1.14991 11.4059 1.86472 11.5923C3.2011 11.9342 8.51554 11.9342 8.51554 11.9342C8.51554 11.9342 13.7989 11.9342 15.1353 11.5923C15.8501 11.4059 16.4406 10.8464 16.6271 10.1005C17 8.76417 17 5.99817 17 5.99817C17 5.99817 17 3.2011 16.6271 1.8958ZM6.77514 8.51554V3.4808L11.1883 5.99817L6.77514 8.51554Z" fill="white"/>
</svg>
