<svg width="15" height="15" viewBox="0 0 15 15" fill="none" xmlns="http://www.w3.org/2000/svg">
<path d="M15 7.5C15 3.35685 11.6431 0 7.5 0C3.35685 0 0 3.35685 0 7.5C0 10.7056 1.96573 13.3972 4.74798 14.4859C4.6875 13.9113 4.62702 13.004 4.77823 12.3387C4.92944 11.7641 5.65524 8.61895 5.65524 8.61895C5.65524 8.61895 5.44355 8.16532 5.44355 7.5C5.44355 6.47177 6.04839 5.68548 6.80444 5.68548C7.43952 5.68548 7.74194 6.16935 7.74194 6.74395C7.74194 7.37903 7.31855 8.34677 7.10685 9.25403C6.95565 9.97984 7.5 10.5847 8.22581 10.5847C9.55645 10.5847 10.5847 9.19355 10.5847 7.16734C10.5847 5.35282 9.28427 4.1129 7.46976 4.1129C5.32258 4.1129 4.08266 5.71573 4.08266 7.34879C4.08266 8.01411 4.3246 8.70968 4.62702 9.07258C4.6875 9.13306 4.6875 9.22379 4.6875 9.28427C4.62702 9.52621 4.47581 10.0403 4.47581 10.131C4.44556 10.2823 4.35484 10.3125 4.20363 10.252C3.26613 9.79839 2.69153 8.4375 2.69153 7.31855C2.69153 4.95968 4.41532 2.78226 7.65121 2.78226C10.252 2.78226 12.2782 4.65726 12.2782 7.1371C12.2782 9.70766 10.6452 11.7944 8.37702 11.7944C7.62097 11.7944 6.89516 11.4012 6.65323 10.9173C6.65323 10.9173 6.29032 12.369 6.1996 12.7016C6.01815 13.3669 5.56452 14.1835 5.2621 14.6673C5.95766 14.9093 6.71371 15 7.5 15C11.6431 15 15 11.6431 15 7.5Z" fill="white"/>
</svg>
