<svg width="144" height="23" viewBox="0 0 144 23" fill="none" xmlns="http://www.w3.org/2000/svg">
<path d="M17.6392 14.5606L19.4155 22.9999L11.9995 18.6897V12.7141L17.6392 14.5606Z" fill="#FEE25D"/>
<path d="M19.4155 22.9999L17.6392 14.5606L11.9995 12.7141L19.4155 22.9999Z" fill="#FAC030"/>
<path d="M11.9995 18.6897L4.58348 22.9999L6.35979 14.5606L11.9995 12.7141V18.6897Z" fill="#FFF277"/>
<path d="M4.58348 22.9999L11.9995 18.6897V12.7141L4.58348 22.9999Z" fill="#FED835"/>
<path d="M15.4865 7.87961L24.0003 8.78512L17.6406 14.5605L12.0009 12.714L15.4865 7.87961Z" fill="#FED839"/>
<path d="M17.6396 14.5607L23.9993 8.78525L12 12.7141L17.6396 14.5607Z" fill="#FAA922"/>
<path d="M6.35965 14.5605L0 8.78512L8.51382 7.87961L11.9993 12.714L6.35965 14.5605Z" fill="#FDF5A3"/>
<path d="M0 8.78525L6.35965 14.5607L11.9993 12.7141L0 8.78525Z" fill="#FBDA37"/>
<path d="M11.9996 0L15.4852 7.87967L11.9996 12.714L8.51413 7.87967L11.9996 0Z" fill="#FEF278"/>
<path d="M15.485 7.87967L11.9995 0V12.714L15.485 7.87967Z" fill="#FCC02C"/>
<path d="M47.6391 14.5606L49.4154 22.9999L41.9994 18.6897V12.7141L47.6391 14.5606Z" fill="#FEE25D"/>
<path d="M49.4154 22.9999L47.6391 14.5606L41.9994 12.7141L49.4154 22.9999Z" fill="#FAC030"/>
<path d="M41.9994 18.6897L34.5834 22.9999L36.3597 14.5606L41.9994 12.7141V18.6897Z" fill="#FFF277"/>
<path d="M34.5834 22.9999L41.9994 18.6897V12.7141L34.5834 22.9999Z" fill="#FED835"/>
<path d="M45.4864 7.87961L54.0002 8.78512L47.6405 14.5605L42.0008 12.714L45.4864 7.87961Z" fill="#FED839"/>
<path d="M47.6395 14.5607L53.9992 8.78525L41.9999 12.7141L47.6395 14.5607Z" fill="#FAA922"/>
<path d="M36.3595 14.5605L29.9999 8.78512L38.5137 7.87961L41.9992 12.714L36.3595 14.5605Z" fill="#FDF5A3"/>
<path d="M29.9999 8.78525L36.3595 14.5607L41.9992 12.7141L29.9999 8.78525Z" fill="#FBDA37"/>
<path d="M41.9995 0L45.4851 7.87967L41.9995 12.714L38.514 7.87967L41.9995 0Z" fill="#FEF278"/>
<path d="M45.4849 7.87967L41.9994 0V12.714L45.4849 7.87967Z" fill="#FCC02C"/>
<path d="M77.639 14.5606L79.4153 22.9999L71.9993 18.6897V12.7141L77.639 14.5606Z" fill="#FEE25D"/>
<path d="M79.4153 22.9999L77.639 14.5606L71.9993 12.7141L79.4153 22.9999Z" fill="#FAC030"/>
<path d="M71.9993 18.6897L64.5833 22.9999L66.3596 14.5606L71.9993 12.7141V18.6897Z" fill="#FFF277"/>
<path d="M64.5833 22.9999L71.9993 18.6897V12.7141L64.5833 22.9999Z" fill="#FED835"/>
<path d="M75.4863 7.87961L84.0001 8.78512L77.6404 14.5605L72.0007 12.714L75.4863 7.87961Z" fill="#FED839"/>
<path d="M77.6394 14.5607L83.9991 8.78525L71.9998 12.7141L77.6394 14.5607Z" fill="#FAA922"/>
<path d="M66.3594 14.5605L59.9998 8.78512L68.5136 7.87961L71.9991 12.714L66.3594 14.5605Z" fill="#FDF5A3"/>
<path d="M59.9998 8.78525L66.3594 14.5607L71.9991 12.7141L59.9998 8.78525Z" fill="#FBDA37"/>
<path d="M71.9994 0L75.485 7.87967L71.9994 12.714L68.5139 7.87967L71.9994 0Z" fill="#FEF278"/>
<path d="M75.4848 7.87967L71.9993 0V12.714L75.4848 7.87967Z" fill="#FCC02C"/>
<path d="M107.639 14.5606L109.415 22.9999L101.999 18.6897V12.7141L107.639 14.5606Z" fill="#FEE25D"/>
<path d="M109.415 22.9999L107.639 14.5606L101.999 12.7141L109.415 22.9999Z" fill="#FAC030"/>
<path d="M101.999 18.6897L94.5832 22.9999L96.3595 14.5606L101.999 12.7141V18.6897Z" fill="#FFF277"/>
<path d="M94.5832 22.9999L101.999 18.6897V12.7141L94.5832 22.9999Z" fill="#FED835"/>
<path d="M105.486 7.87961L114 8.78512L107.64 14.5605L102.001 12.714L105.486 7.87961Z" fill="#FED839"/>
<path d="M107.639 14.5607L113.999 8.78525L102 12.7141L107.639 14.5607Z" fill="#FAA922"/>
<path d="M96.3593 14.5605L89.9997 8.78512L98.5135 7.87961L101.999 12.714L96.3593 14.5605Z" fill="#FDF5A3"/>
<path d="M89.9997 8.78525L96.3593 14.5607L101.999 12.7141L89.9997 8.78525Z" fill="#FBDA37"/>
<path d="M101.999 0L105.485 7.87967L101.999 12.714L98.5138 7.87967L101.999 0Z" fill="#FEF278"/>
<path d="M105.485 7.87967L101.999 0V12.714L105.485 7.87967Z" fill="#FCC02C"/>
<path d="M137.639 14.5606L139.415 22.9999L131.999 18.6897V12.7141L137.639 14.5606Z" fill="#FEE25D"/>
<path d="M139.415 22.9999L137.639 14.5606L131.999 12.7141L139.415 22.9999Z" fill="#FAC030"/>
<path d="M131.999 18.6897L124.583 22.9999L126.359 14.5606L131.999 12.7141V18.6897Z" fill="#FFF277"/>
<path d="M124.583 22.9999L131.999 18.6897V12.7141L124.583 22.9999Z" fill="#FED835"/>
<path d="M135.486 7.87961L144 8.78512L137.64 14.5605L132.001 12.714L135.486 7.87961Z" fill="#FED839"/>
<path d="M137.639 14.5607L143.999 8.78525L132 12.7141L137.639 14.5607Z" fill="#FAA922"/>
<path d="M126.359 14.5605L120 8.78512L128.513 7.87961L131.999 12.714L126.359 14.5605Z" fill="#FDF5A3"/>
<path d="M120 8.78525L126.359 14.5607L131.999 12.7141L120 8.78525Z" fill="#FBDA37"/>
<path d="M131.999 0L135.485 7.87967L131.999 12.714L128.514 7.87967L131.999 0Z" fill="#FEF278"/>
<path d="M135.485 7.87967L131.999 0V12.714L135.485 7.87967Z" fill="#FCC02C"/>
</svg>
